<?xml version="1.0" encoding="utf-8"?>
<!-- Generator: Adobe Illustrator 17.1.0, SVG Export Plug-In . SVG Version: 6.00 Build 0)  -->
<!DOCTYPE svg PUBLIC "-//W3C//DTD SVG 1.1//EN" "http://www.w3.org/Graphics/SVG/1.1/DTD/svg11.dtd">
<svg version="1.1" id="Layer_1" xmlns="http://www.w3.org/2000/svg" xmlns:xlink="http://www.w3.org/1999/xlink" x="0px" y="0px"
	 viewBox="0 0 360 360" enable-background="new 0 0 360 360" xml:space="preserve">
<path fill="#553009" d="M223.4,282.8c-1.3,0.3-2.1,1.2-2.9,2.2c-2.2,2.7-4.6,5.3-6.9,8c-0.2,0.2-0.3,0.4-0.6,0.7
	c2,0.7,3.8,1.6,5.3,3.1c2.3,2.3,2.1,4.9-0.8,6.5c-2.8,1.7-6,2.6-9.1,3.5c-7.8,2.4-15.7,4-23.7,5c-0.2-0.1-0.4,0-0.5-0.3
	c9.2-1.5,18.1-4,26.9-7.3c1.1-0.4,2.2-0.9,3.1-1.8c0.8-0.8,0.8-1.6-0.1-2.3c-1.8-1.4-4.1-1.5-6.2-1.8c-0.2,0-0.5,0.2-0.7,0.4
	c-7.8,5.3-16.6,8.2-25.8,9.6c-8.9,1.3-17.9,1.6-26.9,0.7c-12.3-1.3-23.6-5-33.2-13.2c-0.7-0.6-1.1-0.4-1.6,0.1
	c-2.5,2.5-1.8,6.7,1.5,8.9c2.5,1.7,5.3,2.6,8.2,3.3c-0.1,0.1-0.2,0.1-0.2,0.2c-4.2-0.7-8.2-1.9-11.9-4.2c-3.8-2.5-3.8-4.7-0.1-7.3
	c1-0.7,2.1-1.1,3.3-1.7c-1-0.9-1.9-1.7-2.8-2.6c-5.9-5.7-10.5-12.3-14.6-19.3c-0.6-1-1.1-1.2-2.2-0.9c-2.6,0.7-5.2,1.3-7.8,1.9
	c-0.1-0.2-0.1-0.4-0.2-0.6c2.7-0.6,5.5-1.2,8.2-1.7c0.8-0.2,1-0.3,0.5-1.1c-1.5-2.8-3-5.6-4.4-8.5c-3.2-6.4-4.7-13.2-5.6-20.2
	c-0.9-7.1-1.1-14.2-1-21.3c0-1.5,0.1-3,0.2-4.4c0.2-1.9,1.4-3.1,2.7-4.1c3.3-2.7,7.1-4.3,11-5.6c6.4-2.2,13-3.2,19.6-4.3
	c6.3-1.1,12.7-1.8,19-2.4c0.5,0,0.9,0,0.6-0.7c-2.4-5.5-1.2-10.7,1.6-15.7c1.8-3.2,4.4-5.9,6.7-8.7c4.1-5,7.6-10.4,9.3-16.7
	c1.6-5.8,1.1-11.5-1.2-17.1c-1.7-4-4.2-7.5-6.7-11c-0.3-0.4-0.5-0.7-0.7-1.1c0.1-0.1,0.2-0.2,0.3-0.3c0.1,0.1,0.2,0.2,0.3,0.3l0,0.1
	l0.1,0c1.9,2.2,3.7,4.5,5.3,7c0.2,0.3,0.4,0.8,0.9,0.9l0,0c0,0.9,0.6,1.4,1,2.1c2.7,4.5,5.1,9.2,6.5,14.3c1.7,6.1,1.9,12.2-1,18
	c-1.7,3.4-3.5,6.7-5.3,10.1c-2.1,4-4.2,8-5.6,12.3c-0.4,1.4-0.7,2.9-0.8,4.4c-0.1,0.7,0.1,1,0.9,0.9c5.7-0.5,11.5-0.5,17.3-0.3
	c3.2,0.1,6.3,0.4,9.5,0.6c0.7,0.1,1.2-0.1,1.6-0.8c5.7-8.5,8.8-17.9,8.6-28.2c-0.2-8-2.3-15.5-5.7-22.7c-3.6-7.7-8.5-14.4-13.6-21.1
	c-5.5-7.2-10.5-14.7-13.9-23.1c-3.5-8.9-3.4-17.6,0.8-26.3c0.4,1.9,0.8,3.9,1.3,5.7c2.1,7.7,5.6,14.9,9.5,21.9
	c4.3,7.7,9.4,14.8,14.4,22c6,8.6,10.7,17.8,12.7,28.2c2.6,13.4-0.1,25.6-7.6,36.9c-1.7,2.6-3.6,5-5.6,7.3c-0.4,0.1-0.1,0.6-0.4,0.7
	c-1.4,1.1-2.5,2.6-3.9,3.9c-0.3,0.3-0.5,0.6-1.1,0.8c1.2-1.7,2.6-3,3.6-4.7c-3.4-0.3-6.7-0.4-10-0.4c-5.7-0.1-11.4,0.3-17.1,0.7
	c-0.8,0.1-1,0.3-0.8,1.1c0.2,0.5,0.2,1,0.3,1.5c-2.3,1-3.2,3-3.6,5.3c-2.5-1.6-4.4-3.6-6.1-6c-0.4-0.6-0.8-0.8-1.5-0.7
	c-8.9,1-17.7,2.3-26.4,4.5c-3.8,0.9-7.5,2.3-10.8,4.5c-2.3,1.5-3.6,3.6-4.1,6.3c-0.4,2.1,0.3,3.8,1.9,5.1c2.8,2.4,6.1,3.9,9.5,5.2
	c0.4,0.2,0.8,0,1.1-0.1c10.4-3.8,21.3-5.6,32.3-6.6c9.4-0.9,18.8-1,28.2-0.6c7.1,0.3,14.2,1,21.2,2c8,1.2,15.9,2.8,23.5,5.4
	c2,0.7,3.3,0.2,4.8-0.7c2-1.2,4-2.6,5.5-4.4c2.7-3.2,2.6-6.8-0.3-9.9c-2.7-2.9-6.2-4.5-9.7-5.9c-3-1.2-6.1-2-9.3-2.7
	c0-0.1,0-0.3,0-0.4c5.5,1.1,11,2.4,16,5.1c2,1.1,3.8,2.4,5.3,4.2c3.3,3.8,2.9,8.2-0.9,12.1c-3.2,3.3-7.2,5.4-11.5,7
	c-9.2,3.5-18.8,5.4-28.6,6.6c-9.8,1.2-19.6,1.6-29.4,1.1c-14.9-0.7-29.6-2.9-43.7-7.8c-3.2-1.1-7.1,0.2-9.1,2.9
	c-1.8,2.5-2.3,5.4-2.8,8.3c-1,6.5,0.4,12.7,2.4,18.8c3,9.1,7,17.6,12.6,25.4c4.1,5.8,9.1,10.7,15.5,13.9c5.5,2.8,11.6,4.2,17.8,4.9
	c2.3,0.3,4.6,0.4,6.9,0.6c0.2,0.2,0.3,0.2,0.5,0c0.5,0,0.9,0,1.4,0c0.1,0.1,0.2,0.1,0.3,0c1.1,0,2.1,0,3.2,0c0.1,0.1,0.2,0.1,0.3,0
	c0.5,0,0.9,0,1.4,0c0.2,0.2,0.3,0.2,0.5,0c0.2,0,0.5,0,0.7,0c0.1,0.6-0.7,0.8-0.7,1.4c-0.4,0-0.7,0.3-0.7,0.7
	c-0.4,0-0.6,0.3-0.8,0.7c0.5,0,0.7-0.3,0.8-0.7c0.4-0.1,0.7-0.3,0.7-0.7c0.7-0.2,1.1-0.6,1.2-1.4c0.1,0,0.3,0,0.4,0
	c0.1,0.1,0.2,0.1,0.3,0c8.3-0.1,16.4-1.6,24.1-4.5c6.4-2.5,12-6.1,16.7-11.2c4.4-4.8,8.8-9.5,12.4-14.9c7.3-10.9,11.9-23,14.4-35.9
	c0.8-4,1.3-8,1.7-12c0.1,0,0.3,0,0.4,0c-0.1,1.4-0.1,2.7-0.3,4.1c-0.1,0.9,0.1,1.1,1,1c3.4-0.2,6.8,0,10,1.3
	c5.5,2.1,8.6,6.2,9.8,11.9c1.9,9.5-1.9,16.7-9,22.6c-2.4,2-5,3.7-7.7,5.2c-0.2,0.1-0.5,0.1-0.6,0.6c3.6,0.9,7.1,1.7,10.6,2.8
	c5.4,1.7,10.7,3.5,15.5,6.5c2.4,1.5,4.6,3.2,5.9,5.8c1.1,2.2,1,4.5-0.2,6.6c-1.4,2.7-3.6,4.6-6.2,6.1c-2.8,1.6-5.6,3.1-8.5,4.4
	c-0.4,0.2-0.7,0.3-1.1,0.1c2.6-1.6,5-3.4,6.8-5.8c3.5-4.5,3.2-9.7-0.8-13.9c-3.7-3.8-8.3-6.2-13.2-8.3c-2.9-1.3-6-2.2-9-3.2
	c-1.2-0.4-2.3-0.5-3.4,0.3c-0.3,0.2-0.8,0.3-1.2,0.5c-2.9-4.6-9.7-4.6-13.4-1.3C223.7,277.2,223.1,279.9,223.4,282.8z M107.4,227.5
	c-0.1-0.1-0.2-0.2-0.2-0.2c0-0.3-0.2-0.5-0.5-0.5c0-0.2,0-0.3,0-0.5c0,0,0.1,0,0.1,0c0,0,0,0,0-0.1c0,0-0.1,0.1-0.1,0.1
	c-0.2,0-0.4,0-0.4,0.3c0,0.1,0.2,0.1,0.4,0.2c0,0.3,0.2,0.4,0.5,0.5C107.3,227.4,107.4,227.4,107.4,227.5c0.1,0.1,0.2,0.1,0.3,0.2
	c0.1,0.1,0.2,0.2,0.2,0.2c0.1,0.1,0.2,0.2,0.2,0.2c0.1,0.1,0.1,0.2,0.2,0.4c0,0,0.1-0.1,0.1-0.1c-0.1-0.1-0.2-0.1-0.4-0.2
	c-0.1-0.1-0.2-0.2-0.2-0.2c-0.1-0.1-0.2-0.2-0.2-0.2C107.6,227.7,107.5,227.6,107.4,227.5z M228.7,273.1c5.8-2.3,11.4-4.4,16.2-7.9
	c3.7-2.8,7-6,8.7-10.4c2.3-5.8-0.2-11.3-6.2-13.1c-2-0.6-4.1-0.8-6.3-0.9c-1.2-0.1-1.5,0.3-1.7,1.4c-0.8,4.8-1.9,9.5-3.4,14.1
	C234.2,261.9,231.8,267.4,228.7,273.1z M205.3,227.8c2.1,0.5,4.1,1.3,5.9,2.4c1.6,1,1.6,1,3.5,0.1
	C211.6,229.1,208.6,228,205.3,227.8z"/>
<path fill="#553009" d="M232.7,316c0.1,0,0.3-0.1,0.4-0.1c0,0.1,0,0.2,0,0.3c-5.5,1.2-11.1,2.1-16.8,2.9c-6.5,1-13.1,1.7-19.7,2.1
	c-4.4,0.3-8.8,0.4-13.3,0.5c-5.3,0.1-10.5,0.3-15.8,0.2c-10.3-0.1-20.5-0.5-30.8-1.2c-12.3-0.8-24.5-2-36.6-4.5
	c-8.9-1.8-17.7-3.9-26.1-7.4c-4.9-2-9.5-4.4-13.3-8.2c-1.3-1.3-2.3-2.7-3.1-4.4c-1.3-2.7-1-5.3,0.7-7.7c2-2.8,4.8-4.6,7.7-6.1
	c4.3-2.3,9-4,13.7-5.4c0.5,0.4-0.1,0.8,0,1.2c-3.2,1.3-6.5,2.4-9.5,4.2c-2.4,1.4-4.5,3.1-5.9,5.6c-1.1,1.9-1,3.7,0,5.6
	c1.7,3.1,4.2,5.2,7.1,7c5.3,3.2,11,5.2,16.9,7c11.6,3.5,23.4,6,35.4,8c9.6,1.6,19.3,2.8,29,3.6c16.5,1.4,33.1,1.6,49.6,0.4
	c9.9-0.8,19.8-1.8,29.6-3.5c0.1,0,0.2,0,0.4,0C232.6,316.1,232.6,316.1,232.7,316z"/>
<path fill="#8E755C" d="M223.4,282.8c-0.4-2.9,0.3-5.6,2.6-7.6c3.8-3.3,10.5-3.4,13.4,1.3c-0.6,0.4-1.2,0.7-1.9,0.9
	c-2-2.3-5.8-2.6-7.9-1.7c-2.5,1.1-3.7,3.2-3.6,6.1C225.2,282.2,224.3,282.5,223.4,282.8z"/>
<path fill="#8E755C" d="M261.5,246c-2.4,1.4-4,1.2-6.5,0c-4.2-1.9-6.9-8.1-4-12.2c0.6,0.3,1.8,0.4,2.2,0.9c-1.3,2.5-0.7,6.8,0.9,8.1
	c1.8,1.6,4,1.9,6.5,0.7C261.2,244.2,260.9,245.4,261.5,246z"/>
<path fill="#553009" d="M226,281.9c-0.1-3,1.1-5,3.6-6.1c2.1-0.9,5.9-0.7,7.9,1.7c-0.6,0.3-1.2,0.7-1.9,0.8c-1.3-1.5-2.9-1.5-4.5-1
	c-1.9,0.6-3,2.1-3.2,4C227.3,281.4,226.6,281.7,226,281.9z"/>
<path fill="#8E755C" d="M227.9,281.2c0.1-1.9,1.3-3.4,3.2-4c1.6-0.5,3.3-0.5,4.5,1c-0.8,0.5-1.8,0.8-2.7,1.2c-1.2-0.5-1.9,0.1-2.6,1
	C229.6,280.7,228.7,281,227.9,281.2z"/>
<path fill="#8E755C" d="M260.4,242.1c-2.1,0.4-3.7-0.1-4.8-1.7c-1-1.4-1.5-2.9-0.6-4.6c0.8,0.6,1.5,0.9,2.1,1.7
	c-0.1,1.3,1,2.2,2,2.5C259.2,240.1,260,241.4,260.4,242.1z"/>
<path fill="#8E755C" d="M80,278.3c-0.2-0.4,0.4-0.8,0-1.2c1.7-0.5,3.4-1.2,5.2-1.4c-0.2,0.6-1.1,0.7-1.3,1.3
	C82.7,277.6,81.3,277.9,80,278.3z"/>
<path fill="#8E755C" d="M184,199.9c0.3-0.2,0.1-0.6,0.4-0.7c1.1,0.8,2.4,0.5,3.7,0.6c2.2,0.3,4.5,0.5,6.7,1.1
	C191.2,200.6,187.6,200.3,184,199.9z"/>
<path fill="#8E755C" d="M92.8,273.6c0.1,0.2,0.1,0.4,0.2,0.6c-1.3,0.5-2.7,0.9-4.1,1.2c-0.1-0.3-0.8,0-0.7-0.6
	C89.7,274.3,91.3,274,92.8,273.6z"/>
<path fill="#553009" d="M88.2,274.9c-0.1,0.6,0.6,0.3,0.7,0.6c-1.7,0.5-3.4,1-5,1.5c0.2-0.6,1.1-0.7,1.3-1.3
	C86.2,275.4,87.2,275.1,88.2,274.9z"/>
<path fill="#8E755C" d="M241,227.8c-0.1,0-0.3,0-0.4,0c0.1-2.6,0.3-5.2,0.4-7.8C241.3,222.6,241.3,225.2,241,227.8z"/>
<path fill="#8E755C" d="M233.2,316.3c0-0.1,0-0.2,0-0.3c2.1-0.5,4.3-0.9,6.4-1.4C237.5,315.4,235.4,316,233.2,316.3z"/>
<path fill="#8E755C" d="M152.5,128.9c-0.9-0.9-1.5-2.1-2.1-3.2c0.9,0.9,1.8,1.7,2.5,2.8C152.7,128.7,152.6,128.8,152.5,128.9z"/>
<path fill="#8E755C" d="M179.5,312.6c-2,0.2-3.6,0.2-5.2,0.3C175.9,313.1,177.5,312.1,179.5,312.6z"/>
<path fill="#8E755C" d="M211.1,203.1c0,0.1,0,0.3,0,0.4c-1.3-0.2-2.5-0.5-3.8-0.7C208.7,202.4,209.9,202.8,211.1,203.1z"/>
<path fill="#8E755C" d="M184.3,311.5c0.1,0.2,0.4,0.2,0.5,0.3c-1.3,0.3-2.7,0.5-4.1,0.2C181.9,311.9,183.1,311.7,184.3,311.5z"/>
<path fill="#553009" d="M230.3,280.3c0.7-0.8,1.4-1.5,2.6-1C232.1,279.7,231.3,280.1,230.3,280.3z"/>
<path fill="#8E755C" d="M129,308.4c0.1-0.1,0.2-0.1,0.2-0.2c0.9,0.1,1.7,0.3,2.5,0.6C130.8,308.9,129.9,308.8,129,308.4z"/>
<path fill="#8E755C" d="M162.2,306.3c-0.2,0.2-0.3,0.2-0.5,0C161.8,306.3,162,306.3,162.2,306.3z"/>
<path fill="#8E755C" d="M169.4,306.3c-0.2,0.2-0.3,0.2-0.5,0C169,306.3,169.2,306.3,169.4,306.3z"/>
<path fill="#8E755C" d="M232.7,316c-0.1,0-0.2,0-0.2,0C232.6,316.1,232.6,316.1,232.7,316z"/>
<polygon fill="#553009" points="159.5,137.1 159.5,137 159.6,137 "/>
<path fill="#8E755C" d="M153.3,129.1L153.3,129.1l-0.1-0.1C153.3,129,153.3,129.1,153.3,129.1z"/>
<path fill="#553009" d="M152.5,128.9c0.1-0.1,0.2-0.3,0.3-0.4c0.1,0,0.1,0.1,0.1,0.2c-0.1,0.1-0.2,0.2-0.3,0.3
	C152.6,129,152.5,129,152.5,128.9z"/>
<path fill="#8E755C" d="M171.3,306.3c-0.1,0.1-0.2,0.1-0.3,0C171.1,306.3,171.2,306.3,171.3,306.3z"/>
<path fill="#8E755C" d="M167.5,306.4c-0.1,0.1-0.2,0.1-0.3,0C167.2,306.3,167.3,306.3,167.5,306.4z"/>
<path fill="#8E755C" d="M163.9,306.4c-0.1,0.1-0.2,0.1-0.3,0C163.7,306.3,163.8,306.3,163.9,306.4z"/>
<path fill="#FDFDFD" d="M228.7,273.1c3.1-5.6,5.4-11.1,7.3-16.9c1.5-4.6,2.7-9.3,3.4-14.1c0.2-1.1,0.6-1.5,1.7-1.4
	c2.1,0.1,4.2,0.3,6.3,0.9c6,1.9,8.5,7.3,6.2,13.1c-1.8,4.4-5,7.6-8.7,10.4C240.1,268.7,234.5,270.8,228.7,273.1z"/>
<path fill="#FDFDFD" d="M205.3,227.8c3.3,0.2,6.3,1.3,9.4,2.5c-1.9,0.9-1.9,0.9-3.5-0.1C209.4,229.2,207.4,228.4,205.3,227.8z"/>
<path fill="#8E755C" d="M106.7,226.8c0.3,0,0.4,0.2,0.5,0.5l0,0C106.9,227.2,106.7,227.1,106.7,226.8L106.7,226.8z"/>
<path fill="#8E755C" d="M108.2,228.2c0.1,0.1,0.2,0.1,0.4,0.2c0,0-0.1,0.1-0.1,0.1C108.3,228.5,108.2,228.4,108.2,228.2L108.2,228.2
	z"/>
<path fill="#8E755C" d="M106.7,226.3c0,0.2,0,0.3,0,0.5l0,0c-0.1-0.1-0.4-0.1-0.4-0.2C106.3,226.3,106.5,226.3,106.7,226.3
	L106.7,226.3z"/>
<path fill="#8E755C" d="M107.9,228c0.1,0.1,0.2,0.2,0.2,0.2l0,0C108.1,228.2,108,228.1,107.9,228L107.9,228z"/>
<path fill="#8E755C" d="M107.9,228c-0.1-0.1-0.2-0.2-0.2-0.2l0,0C107.8,227.8,107.8,227.9,107.9,228L107.9,228z"/>
<path fill="#8E755C" d="M107.4,227.5c0.1,0.1,0.2,0.2,0.2,0.2l0,0C107.6,227.7,107.5,227.6,107.4,227.5L107.4,227.5z"/>
<path fill="#8E755C" d="M106.7,226.3c0,0,0.1-0.1,0.1-0.1C106.8,226.2,106.8,226.3,106.7,226.3C106.8,226.3,106.7,226.3,106.7,226.3
	L106.7,226.3z"/>
<path fill="#8E755C" d="M107.4,227.5c-0.1-0.1-0.2-0.2-0.2-0.2l0,0C107.3,227.4,107.4,227.4,107.4,227.5L107.4,227.5z"/>
</svg>
